<?xml version="1.0" encoding="UTF-8"?>
<svg width="96px" height="195px" viewBox="0 0 96 195" version="1.1" xmlns="http://www.w3.org/2000/svg" xmlns:xlink="http://www.w3.org/1999/xlink">
    <!-- Generator: Sketch 52.5 (67469) - http://www.bohemiancoding.com/sketch -->
    <title>分组 8@3x</title>
    <desc>Created with Sketch.</desc>
    <g id="页面-1" stroke="none" stroke-width="1" fill="none" fill-rule="evenodd">
        <g id="分组-8">
            <rect id="矩形" fill="#FFFFFF" x="0" y="0" width="96" height="195"></rect>
            <g id="action_logo">
                <g id="分组-2">
                    <rect id="矩形" fill="#F7F7F7" x="0" y="0" width="48" height="48"></rect>
                    <g transform="translate(0.000000, 49.000000)">
                        <rect id="矩形" fill="#F7F7F7" x="0" y="0" width="48" height="48"></rect>
                        <g id="分组-3" transform="translate(9.000000, 8.800000)">
                            <path d="M6.632,11.864 L6.632,23.6 C3.84894307,23.0248446 1.85269947,20.5738673 1.85269947,17.732 C1.85269947,14.8901327 3.84894307,12.4391554 6.632,11.864 Z M7.168,10.576 L7.096,10.576 C3.4799332,11.0129676 0.759768488,14.0816272 0.759768488,17.724 C0.759768488,21.3663728 3.4799332,24.4350324 7.096,24.872 L7.168,24.872 C7.52718901,24.8589631 7.80900299,24.5593128 7.8,24.2 L7.8,11.232 C7.79561909,10.8684109 7.49961546,10.5759736 7.136,10.576 L7.168,10.576 Z" id="形状" fill="#44883E" fill-rule="nonzero"></path>
                            <path d="M23.368,11.864 C26.1510569,12.4391554 28.1473005,14.8901327 28.1473005,17.732 C28.1473005,20.5738673 26.1510569,23.0248446 23.368,23.6 L23.368,11.864 Z M22.832,10.576 C22.4683845,10.5759736 22.1723809,10.8684109 22.168,11.232 L22.168,24.2 C22.1701088,24.3739861 22.2412537,24.540007 22.3657807,24.6615334 C22.4903077,24.7830597 22.6580142,24.8501347 22.832,24.848 L22.904,24.848 C26.5200668,24.4110324 29.2402315,21.3423728 29.2402315,17.7 C29.2402315,14.0576272 26.5200668,10.9889676 22.904,10.552 L22.832,10.576 Z" id="形状" fill="#44883E" fill-rule="nonzero"></path>
                            <path d="M3.944,12.048 C3.8504738,5.84619388 8.79830834,0.740830602 15,0.64 C21.2016917,0.740830602 26.1495262,5.84619388 26.056,12.048" id="路径" stroke="#44883E" stroke-width="1.5"></path>
                            <path d="M25.304,23.808 C25.304,23.808 26.616,29.144 15.896,29.144" id="路径" stroke="#44883E" stroke-width="1.5"></path>
                            <rect id="矩形" fill="#F7F7F7" x="12.336" y="27.688" width="5.336" height="2.264" rx="0.96"></rect>
                            <path d="M16.896,28.288 C16.9887838,28.288 17.064,28.3632162 17.064,28.456 L17.064,29.192 C17.064,29.2365564 17.0463001,29.2792878 17.0147939,29.3107939 C16.9832878,29.3423001 16.9405564,29.36 16.896,29.36 L13.104,29.36 C13.0594436,29.36 13.0167122,29.3423001 12.9852061,29.3107939 C12.9536999,29.2792878 12.936,29.2365564 12.936,29.192 L12.936,28.456 C12.936,28.4114436 12.9536999,28.3687122 12.9852061,28.3372061 C13.0167122,28.3056999 13.0594436,28.288 13.104,28.288 L16.896,28.288 Z M16.896,27.088 L13.104,27.088 C12.3484745,27.088 11.736,27.7004745 11.736,28.456 L11.736,29.192 C11.736,29.9475255 12.3484745,30.56 13.104,30.56 L16.896,30.56 C17.6515255,30.56 18.264,29.9475255 18.264,29.192 L18.264,28.456 C18.264,28.0931838 18.1198718,27.7452277 17.8633221,27.4886779 C17.6067723,27.2321282 17.2588162,27.088 16.896,27.088 Z" id="形状" fill="#44883E" fill-rule="nonzero"></path>
                        </g>
                    </g>
                    <g id="分组-3" transform="translate(0.000000, 98.000000)">
                        <rect id="矩形" fill="#F7F7F7" x="0" y="0" width="48" height="48"></rect>
                        <path d="M24,17.103266 C29.8996213,16.976995 35.4796632,19.777499 38.904,24.583266 C35.3949336,29.28873 29.8698333,32.060715 24,32.060715 C18.1301667,32.060715 12.6050664,29.28873 9.096,24.583266 C12.5231478,19.780781 18.1013304,16.98121 24,17.103266 Z M24,15.903266 C17.4254679,15.781646 11.254285,19.063868 7.68,24.583266 C11.3378134,30.011028 17.4547574,33.265084 24,33.265084 C30.5452426,33.265084 36.6621866,30.011028 40.32,24.583266 C36.745715,19.063868 30.5745321,15.781646 24,15.903266 Z" id="形状" fill="#44883E" fill-rule="nonzero"></path>
                        <path d="M24,20.224 C26.527255,20.224 28.576,22.272745 28.576,24.8 C28.576,27.327255 26.527255,29.376 24,29.376 C21.472745,29.376 19.424,27.327255 19.424,24.8 C19.4284035,22.274571 21.4745712,20.228404 24,20.224 Z M24,19.024 C20.8100033,19.024 18.224,21.610003 18.224,24.8 C18.224,27.989997 20.8100033,30.576 24,30.576 C27.1899967,30.576 29.776,27.989997 29.776,24.8 C29.776,21.610003 27.1899967,19.024 24,19.024 Z" id="形状" fill="#44883E" fill-rule="nonzero"></path>
                    </g>
                    <g id="分组-4" transform="translate(0.000000, 147.000000)">
                        <rect id="矩形" fill="#F7F7F7" x="0" y="0" width="48" height="48"></rect>
                        <g transform="translate(10.000000, 10.800000)">
                            <polyline id="路径" stroke="#44883E" stroke-width="1.5" points="27.104 2.312 2.936 15.168 19.192 24.072"></polyline>
                            <path d="M3.32,17.656 C1.90173276,17.656 0.752,16.5062672 0.752,15.088 C0.752,13.6697328 1.90173276,12.52 3.32,12.52 C4.73826724,12.52 5.888,13.6697328 5.888,15.088 C5.888,16.5062672 4.73826724,17.656 3.32,17.656 Z" id="路径" fill="#F7F7F7"></path>
                            <path d="M3.32,13.128 C4.11742844,13.124765 4.83798841,13.603063 5.14464735,14.3391763 C5.45130628,15.0752897 5.28344165,15.9236983 4.71956995,16.48757 C4.15569825,17.0514416 3.30728968,17.2193063 2.57117632,16.9126473 C1.83506295,16.6059884 1.35676496,15.8854284 1.36,15.088 C1.36438406,14.007343 2.23934304,13.1323841 3.32,13.128 Z M3.32,11.928 C2.02210256,11.9281014 0.852815594,12.7121554 0.359951806,13.9128315 C-0.132911982,15.1135075 0.148278015,16.4929657 1.07178386,17.4049277 C1.9952897,18.3168898 3.37817559,18.5807065 4.57255739,18.0727795 C5.76693919,17.5648524 6.53622371,16.385796 6.52,15.088 C6.49810241,13.3363295 5.07180735,11.9278631 3.32,11.928 Z" id="形状" fill="#44883E" fill-rule="nonzero"></path>
                            <path d="M24.68,6.024 C23.6406191,6.02723796 22.7017806,5.40362197 22.3017811,4.44428699 C21.9017817,3.48495201 22.1195098,2.37909984 22.8533192,1.64299729 C23.5871286,0.906894744 24.692296,0.685717303 25.6528744,1.0827216 C26.6134527,1.4797259 27.239995,2.41661403 27.24,3.456 C27.2400069,4.87114891 26.095142,6.01959144 24.68,6.024 Z" id="路径" fill="#F7F7F7"></path>
                            <path d="M24.68,1.496 C25.4767083,1.49600658 26.1948134,1.9763646 26.4989477,2.71273843 C26.8030821,3.44911226 26.6332368,4.29620814 26.0687328,4.85841744 C25.5042288,5.42062674 24.6564481,5.58702006 23.9213192,5.2798888 C23.1861903,4.97275754 22.7087613,4.25270171 22.712,3.456 C22.7119957,2.93478662 22.9195929,2.43503673 23.2888962,2.0672346 C23.6581996,1.69943246 24.158791,1.4938726 24.68,1.496 Z M24.68,0.296 C23.3785825,0.279831459 22.1970248,1.05349699 21.691496,2.25282583 C21.1859672,3.45215467 21.457193,4.83818258 22.3775052,5.75849477 C23.2978174,6.67880695 24.6838453,6.95003276 25.8831742,6.44450397 C27.082503,5.93897518 27.8561685,4.75741754 27.84,3.456 C27.8184297,1.71979338 26.4162066,0.317570271 24.68,0.296 Z" id="形状" fill="#44883E" fill-rule="nonzero"></path>
                            <path d="M20.984,27.504 C19.944614,27.503995 19.0077259,26.8774527 18.6107216,25.9168744 C18.2137173,24.956296 18.4348947,23.8511286 19.1709973,23.1173192 C19.9070998,22.3835098 21.012952,22.1657817 21.972287,22.5657811 C22.931622,22.9657806 23.555238,23.9046191 23.552,24.944 C23.5520033,25.6243426 23.2811919,26.2767039 22.7993671,26.7570277 C22.3175424,27.2373514 21.6643393,27.5061261 20.984,27.504 Z" id="路径" fill="#F7F7F7"></path>
                            <path d="M20.984,23 C21.7807017,22.9967613 22.5007575,23.4741903 22.8078888,24.2093192 C23.1150201,24.9444481 22.9486267,25.7922288 22.3864174,26.3567328 C21.8242081,26.9212368 20.9771123,27.0910821 20.2407384,26.7869477 C19.5043646,26.4828134 19.0240066,25.7647083 19.024,24.968 C19.023991,23.8842202 19.9002291,23.0044056 20.984,23 Z M20.984,21.8 C19.2166888,21.8 17.784,23.2326888 17.784,25 C17.784,26.7673112 19.2166888,28.2 20.984,28.2 C22.7513112,28.2 24.184,26.7673112 24.184,25 C24.184,23.2326888 22.7513112,21.8 20.984,21.8 Z" id="形状" fill="#44883E" fill-rule="nonzero"></path>
                        </g>
                    </g>
                    <path d="M10.16,12.86 L37.84,12.86" id="路径" stroke="#44883E" stroke-width="1.5" stroke-linecap="round"></path>
                    <path d="M24.04,15.1120294 L33.232,24.3040294 L29.776,24.3040294 C28.9029435,24.3291086 28.2010792,25.0309729 28.176,25.9040294 L28.176,34.9200294 L19.856,34.9200294 L19.856,25.9600294 C19.8560052,25.5236847 19.6821222,25.1053273 19.3728302,24.7975367 C19.0635381,24.489746 18.6443395,24.3179009 18.208,24.3200294 L14.792,24.3200294 L24.04,15.0720294 L24.04,15.1120294 Z M24.04,13.5600294 C23.9229536,13.5586644 23.8103636,13.6048552 23.728,13.6880294 L12.632,24.7760294 C12.50542,24.9018973 12.4674309,25.091769 12.5358388,25.2566495 C12.6042467,25.42153 12.7654931,25.5287402 12.944,25.5280294 L18.216,25.5280294 C18.4590053,25.5280294 18.656,25.7250241 18.656,25.9680294 L18.656,35.7200294 C18.656,35.9630347 18.8529947,36.1600294 19.096,36.1600294 L28.904,36.1600294 C29.1470053,36.1600294 29.344,35.9630347 29.344,35.7200294 L29.344,25.9600294 C29.344,25.7170241 29.5409947,25.5200294 29.784,25.5200294 L35.064,25.5200294 C35.2413786,25.5221793 35.4020428,25.4156755 35.4691403,25.2514631 C35.5362378,25.0872507 35.4961292,24.8987107 35.368,24.7760294 L24.352,13.7520294 C24.2696364,13.6688552 24.1570464,13.6226644 24.04,13.6240294 L24.04,13.5600294 Z" id="形状" fill="#44883E" fill-rule="nonzero"></path>
                </g>
                <g id="分组" transform="translate(48.000000, 0.000000)">
                    <rect id="矩形" fill="#F7F7F7" x="0" y="0" width="48" height="48"></rect>
                    <g id="分组-5" transform="translate(0.000000, 49.000000)">
                        <rect id="矩形" fill="#F7F7F7" x="0" y="0" width="48" height="48"></rect>
                        <path d="M16.152,32.976 C12.7833019,32.6426544 10.2163456,29.8091508 10.2163456,26.424 C10.2163456,23.0388492 12.7833019,20.2053456 16.152,19.872 C16.152,19.872 16.224,19.872 16.224,19.928 L16.224,32.928 C16.224,32.928 16.224,32.976 16.16,32.976 L16.152,32.976 Z" id="路径" fill="#44883E"></path>
                        <path d="M15.632,20.56 L15.632,32.296 C12.8489431,31.7208446 10.8526995,29.2698673 10.8526995,26.428 C10.8526995,23.5861327 12.8489431,21.1351554 15.632,20.56 Z M16.168,19.272 L16.096,19.272 C12.4799332,19.7089676 9.75976849,22.7776272 9.75976849,26.42 C9.75976849,30.0623728 12.4799332,33.1310324 16.096,33.568 L16.168,33.568 C16.3419858,33.5701347 16.5096923,33.5030597 16.6342193,33.3815334 C16.7587463,33.260007 16.8298912,33.0939861 16.832,32.92 L16.832,19.928 C16.832013,19.752623 16.7618019,19.5845429 16.6370423,19.4612865 C16.5122827,19.33803 16.343364,19.2698613 16.168,19.272 Z" id="形状" fill="#44883E" fill-rule="nonzero"></path>
                        <path d="M31.832,32.976 C31.832,32.976 31.768,32.976 31.768,32.928 L31.768,19.928 C31.7720546,19.8958093 31.799556,19.8717457 31.832,19.872 C35.2006981,20.2053456 37.7676544,23.0388492 37.7676544,26.424 C37.7676544,29.8091508 35.2006981,32.6426544 31.832,32.976 Z" id="路径" fill="#44883E"></path>
                        <path d="M32.368,20.56 C35.1510569,21.1351554 37.1473005,23.5861327 37.1473005,26.428 C37.1473005,29.2698673 35.1510569,31.7208446 32.368,32.296 L32.368,20.56 Z M31.832,19.272 C31.656636,19.2698613 31.4877173,19.33803 31.3629577,19.4612865 C31.2381981,19.5845429 31.167987,19.752623 31.168,19.928 L31.168,32.928 C31.1701088,33.1019861 31.2412537,33.268007 31.3657807,33.3895334 C31.4903077,33.5110597 31.6580142,33.5781347 31.832,33.576 L31.904,33.576 C35.5200668,33.1390324 38.2402315,30.0703728 38.2402315,26.428 C38.2402315,22.7856272 35.5200668,19.7169676 31.904,19.28 L31.832,19.272 Z" id="形状" fill="#44883E" fill-rule="nonzero"></path>
                        <path d="M12.944,20.744 C12.8504738,14.5421939 17.7983083,9.4368306 24,9.336 C30.2016917,9.4368306 35.1495262,14.5421939 35.056,20.744" id="路径" stroke="#44883E" stroke-width="1.5"></path>
                        <path d="M34.304,32.504 C34.304,32.504 35.616,37.84 24.896,37.84" id="路径" stroke="#44883E" stroke-width="1.5"></path>
                        <rect id="矩形" fill="#44883E" x="21.336" y="36.384" width="5.336" height="2.264" rx="0.96"></rect>
                        <path d="M25.896,36.984 C25.9887838,36.984 26.064,37.0592162 26.064,37.152 L26.064,37.888 C26.064,37.9325564 26.0463001,37.9752878 26.0147939,38.0067939 C25.9832878,38.0383001 25.9405564,38.056 25.896,38.056 L22.104,38.056 C22.0112162,38.056 21.936,37.9807838 21.936,37.888 L21.936,37.152 C21.936,37.0592162 22.0112162,36.984 22.104,36.984 L25.896,36.984 Z M25.896,35.784 L22.104,35.784 C21.3484745,35.784 20.736,36.3964745 20.736,37.152 L20.736,37.888 C20.736,38.6435255 21.3484745,39.256 22.104,39.256 L25.896,39.256 C26.6515255,39.256 27.264,38.6435255 27.264,37.888 L27.264,37.152 C27.264,36.3964745 26.6515255,35.784 25.896,35.784 Z" id="形状" fill="#44883E" fill-rule="nonzero"></path>
                    </g>
                    <g id="分组-6" transform="translate(0.000000, 98.000000)">
                        <rect id="矩形" fill="#F7F7F7" x="0" y="0" width="48" height="48"></rect>
                        <path d="M24,19.92 L23.768,19.92 C21.306362,20.06325 19.4008871,22.131221 19.4591182,24.596336 C19.5173492,27.061451 21.5183437,29.037142 23.984,29.064 L24.216,29.064 C26.677638,28.92075 28.5831129,26.852779 28.5248818,24.387664 C28.4666508,21.922549 26.4656563,19.946858 24,19.92 Z" id="路径" fill="#44883E"></path>
                        <path d="M40.32,24.496 C36.7478646,18.97426 30.5752724,15.691288 24,15.816 C17.4247276,15.691288 11.2521354,18.97426 7.68,24.496 C11.2485758,30.024557 17.4207803,33.3164 24,33.2 C30.5745321,33.32162 36.745715,30.039398 40.32,24.52 L40.32,24.496 Z M24.32,30.264 L24,30.264 C20.873535,30.251538 18.3245317,27.753672 18.2487209,24.628102 C18.1729101,21.502531 20.5978156,18.884023 23.72,18.72 L24,18.72 C27.126465,18.732462 29.6754683,21.230328 29.7512791,24.355898 C29.8270899,27.481469 27.4021844,30.099977 24.28,30.264 L24.32,30.264 Z" id="形状" fill="#44883E" fill-rule="nonzero"></path>
                    </g>
                    <g id="分组-7" transform="translate(0.000000, 147.000000)">
                        <rect id="矩形" fill="#F7F7F7" x="0" y="2.84217094e-14" width="48" height="48"></rect>
                        <polyline id="路径" stroke="#44883E" stroke-width="1.5" points="37.104 13.008 12.936 25.864 29.192 34.76"></polyline>
                        <path d="M13.32,28.352 C11.9017328,28.352 10.752,27.202267 10.752,25.784 C10.752,24.365733 11.9017328,23.216 13.32,23.216 C14.7382672,23.216 15.888,24.365733 15.888,25.784 C15.888,27.202267 14.7382672,28.352 13.32,28.352 Z" id="路径" fill="#44883E"></path>
                        <path d="M13.32,23.824 C14.1174284,23.820765 14.8379884,24.299063 15.1446473,25.035176 C15.4513063,25.77129 15.2834416,26.619698 14.71957,27.18357 C14.1556983,27.747442 13.3072897,27.915306 12.5711763,27.608647 C11.835063,27.301988 11.356765,26.581428 11.36,25.784 C11.3643841,24.703343 12.239343,23.828384 13.32,23.824 Z M13.32,22.624 C11.5526888,22.624 10.12,24.056689 10.12,25.824 C10.12,27.591311 11.5526888,29.024 13.32,29.024 C15.0873112,29.024 16.52,27.591311 16.52,25.824 C16.52,24.056689 15.0873112,22.624 13.32,22.624 Z" id="形状" fill="#44883E" fill-rule="nonzero"></path>
                        <path d="M34.68,16.712 C33.639892,16.715235 32.700549,16.090751 32.301021,15.130432 C31.901493,14.170113 32.1206913,13.063633 32.8561622,12.328162 C33.5916332,11.592691 34.6981132,11.373493 35.6584321,11.773021 C36.618751,12.172549 37.2432352,13.111892 37.24,14.152 C37.235608,15.564026 36.0920257,16.707608 34.68,16.712 Z" id="路径" fill="#44883E"></path>
                        <path d="M34.68,12.184 C35.7668964,12.184 36.648,13.065104 36.648,14.152 C36.648,15.238896 35.7668964,16.12 34.68,16.12 C33.5931036,16.12 32.712,15.238896 32.712,14.152 C32.712,13.065104 33.5931036,12.184 34.68,12.184 Z M34.68,10.984 C33.382204,10.967776 32.2031476,11.737061 31.6952205,12.931443 C31.1872935,14.125824 31.4511102,15.50871 32.3630723,16.432216 C33.2750343,17.355722 34.6544925,17.636912 35.8551685,17.144048 C37.0558446,16.651184 37.8398986,15.481897 37.84,14.184 C37.8401369,12.432193 36.4316705,11.005898 34.68,10.984 Z" id="形状" fill="#44883E" fill-rule="nonzero"></path>
                        <path d="M30.984,38.2 C29.944614,38.199995 29.0077259,37.573453 28.6107216,36.612874 C28.2137173,35.652296 28.4348947,34.547129 29.1709973,33.813319 C29.9070998,33.07951 31.012952,32.861782 31.972287,33.261781 C32.931622,33.661781 33.555238,34.600619 33.552,35.64 C33.5520033,36.320343 33.2811919,36.972704 32.7993671,37.453028 C32.3175424,37.933351 31.6643393,38.202126 30.984,38.2 Z" id="路径" fill="#44883E"></path>
                        <path d="M30.984,33.672 C31.7807017,33.668761 32.5007575,34.14619 32.8078888,34.881319 C33.1150201,35.616448 32.9486267,36.464229 32.3864174,37.028733 C31.8242081,37.593237 30.9771123,37.763082 30.2407384,37.458948 C29.5043646,37.154813 29.0240066,36.436708 29.024,35.64 C29.023991,34.55622 29.9002291,33.676406 30.984,33.672 Z M30.984,32.472 C29.2166888,32.472 27.784,33.904689 27.784,35.672 C27.784,37.439311 29.2166888,38.872 30.984,38.872 C32.7513112,38.872 34.184,37.439311 34.184,35.672 C34.184,33.904689 32.7513112,32.472 30.984,32.472 Z" id="形状" fill="#44883E" fill-rule="nonzero"></path>
                    </g>
                    <path d="M10.16,12.864 L37.84,12.864" id="路径" stroke="#44883E" stroke-width="1.5" stroke-linecap="round"></path>
                    <path d="M19.256,35.528 L19.256,26 C19.256,25.4256239 18.7903761,24.96 18.216,24.96 L13.336,24.96 L24.04,14.256 L34.672,24.888 L29.784,24.888 C29.2096239,24.888 28.744,25.3536239 28.744,25.928 L28.744,35.528 L19.256,35.528 Z" id="路径" fill="#44883E"></path>
                    <path d="M24.04,15.088 L33.232,24.28 L29.776,24.28 C28.8877301,24.3058742 28.1799371,25.031362 28.176,25.92 L28.176,34.92 L19.856,34.92 L19.856,26 C19.83422,25.1067936 19.1014599,24.3953761 18.208,24.4 L14.792,24.4 L24.04,15.152 L24.04,15.088 Z M24.04,13.632 C23.9237861,13.6347901 23.8126892,13.6803684 23.728,13.76 L12.632,24.856 C12.50542,24.9818678 12.4674309,25.1717396 12.5358388,25.3366201 C12.6042467,25.5015006 12.7654931,25.6087108 12.944,25.608 L18.216,25.608 C18.3326953,25.608 18.444611,25.654357 18.527127,25.736873 C18.609643,25.819389 18.656,25.9313047 18.656,26.048 L18.656,35.768 C18.656,36.0110053 18.8529947,36.208 19.096,36.208 L28.904,36.208 C29.1470053,36.208 29.344,36.0110053 29.344,35.768 L29.344,26.008 C29.344,25.7649947 29.5409947,25.568 29.784,25.568 L35.064,25.568 C35.2410527,25.5655019 35.3993569,25.4571147 35.465721,25.292951 C35.532085,25.1287874 35.4935765,24.9408375 35.368,24.816 L24.352,13.792 C24.2673108,13.7123684 24.1562139,13.6667901 24.04,13.664 L24.04,13.632 Z" id="形状" fill="#44883E" fill-rule="nonzero"></path>
                </g>
            </g>
        </g>
    </g>
</svg>